# xmcd database file
#
# Track frame offsets:
# 150
# 18642
# 36562
# 53692
# 77787
# 94130
# 115612
# 134695
# 150725
# 176200
# 192667
# 210577
# 226395
# 242670
#
# Disc length: 3577 seconds
#
# Revision: 5
# Processed by: cddbd v1.4PL0 Copyright (c) Steve Scherf et al.
# Submitted via: CD-Runner 2002.15
#
DISCID=c50df70e
DTITLE=Various Artist - Being With You
DYEAR=2000
DGENRE=Rock and Roll
TTITLE0=Being with You - Smokey Robinson
TTITLE1=Just the Two of US - Grover Washington Jr. and Bill Withers
TTITLE2=Betcha by Golly , Wow - The Stylistics
TTITLE3=Piano in the Dark - Brenda Russell
TTITLE4=Three Times a Lady - Commodores
TTITLE5=What You Won't Do for Love- Bobby Caldwell
TTITLE6=Do That to me One More Time - Captain and Tennille
TTITLE7=Lost in Your Eyes - Debbie Gibson
TTITLE8=More Than Words - Extreme
TTITLE9=We're All Alone - Rita Coolidge
TTITLE10=You and I - Eddie Rabbitt and Crystal Gayle
TTITLE11=Tonight I Celebate My Love - Reabo Bryson and Roberta Flack
TTITLE12=Baby, Come to Me - Patti Austin (a duet with James Ingram)
TTITLE13=Reunited - Peaches and Herb
EXTD=
EXTT0=
EXTT1=
EXTT2=
EXTT3=
EXTT4=
EXTT5=
EXTT6=
EXTT7=
EXTT8=
EXTT9=
EXTT10=
EXTT11=
EXTT12=
EXTT13=
PLAYORDER=
